<?xml version="1.0" encoding="UTF-8"?><svg id="Layer_2" xmlns="http://www.w3.org/2000/svg" xmlns:xlink="http://www.w3.org/1999/xlink" viewBox="0 0 80 94.02"><defs><style>.cls-1{fill:url(#linear-gradient);}.cls-2{fill:#101010;}.cls-3{fill:url(#linear-gradient-2);}</style><linearGradient id="linear-gradient" x1="34.37" y1="-4.72" x2="41.89" y2="89.18" gradientUnits="userSpaceOnUse"><stop offset="0" stop-color="#fffa84"/><stop offset="0" stop-color="#f8ee79"/><stop offset=".03" stop-color="#e0c654"/><stop offset=".05" stop-color="#cca436"/><stop offset=".08" stop-color="#bc8a1e"/><stop offset=".1" stop-color="#b1770d"/><stop offset=".13" stop-color="#ab6c03"/><stop offset=".15" stop-color="#a96900"/><stop offset=".23" stop-color="#cc992b"/><stop offset=".3" stop-color="#eec854"/><stop offset=".34" stop-color="#fcda64"/><stop offset=".39" stop-color="#eec753"/><stop offset=".49" stop-color="#cb9729"/><stop offset=".58" stop-color="#a96900"/><stop offset=".68" stop-color="#bf8717"/><stop offset=".83" stop-color="#e3b73e"/><stop offset=".87" stop-color="#e4ba41"/><stop offset=".91" stop-color="#e8c44c"/><stop offset=".94" stop-color="#efd55f"/><stop offset=".98" stop-color="#f8ed79"/><stop offset="1" stop-color="#fffd8b"/></linearGradient><linearGradient id="linear-gradient-2" x1="34.51" y1="-4.73" x2="42.03" y2="89.17" xlink:href="#linear-gradient"/></defs><g id="Layer_1-2"><g><path class="cls-1" d="M25.71,76.31c-1.03-.16-1.99-.26-2.94-.46-2.25-.48-4.35-1.32-6.14-2.8-.58-.48-1.11-1.07-1.53-1.7-.89-1.32-.7-2.74,.42-3.87,1.05-1.06,2.37-1.69,3.78-2.08,2.43-.69,4.88-1.3,7.33-1.91,9.42-2.37,18.85-4.72,28.27-7.08,3.15-.79,6.29-1.58,9.44-2.35,.16-.04,.51,.04,.52,.12,.06,.31,.18,.68-.33,.81-2.13,.55-4.26,1.13-6.38,1.7-4.6,1.22-9.21,2.45-13.81,3.67-.4,.1-.51,.23-.39,.67,1.58,5.99,3.17,11.99,4.69,17.99,1.2,4.73,2.33,9.49,3.5,14.23,.08,.31,.03,.46-.31,.54-1.4,.36-1.4,.37-1.89-.97-2.88-7.77-5.76-15.53-8.64-23.29-.87-2.34-1.74-4.67-2.59-7.02-.15-.42-.3-.6-.79-.44-.84,.28-1.72,.44-2.57,.7-.23,.07-.51,.3-.59,.53-3.26,8.75-6.51,17.51-9.75,26.27-.5,1.35-1.01,2.69-1.5,4.04-.13,.36-.29,.5-.68,.39-.28-.08-.57-.12-.85-.16-.39-.05-.51-.22-.4-.63,.6-2.35,1.17-4.71,1.75-7.06,.76-3.08,1.53-6.17,2.29-9.25,.04-.18,.07-.36,.11-.57Zm3.08-11.73c-.12-.02-.16-.04-.19-.03-2.88,.78-5.78,1.53-8.65,2.36-.97,.28-1.88,.74-2.58,1.51-.64,.7-.78,1.5-.25,2.3,.35,.53,.82,1.01,1.32,1.41,1.22,.98,2.64,1.58,4.14,1.95,1.02,.25,2.08,.35,3.13,.5,.28,.04,.54,.02,.59-.38,.05-.39-.24-.35-.44-.42-.32-.1-.66-.19-.98-.3-1.83-.59-3.61-1.29-4.9-2.83-.11-.13-.21-.28-.31-.41,.57,.26,1.07,.59,1.59,.86,1.52,.77,3.17,1.15,4.83,1.49,.63,.13,.72,.05,.69-.65-1.92-.55-3.92-.97-5.43-2.56,.14-.04,.17-.07,.2-.06,.07,.02,.13,.04,.19,.07,1.5,.76,3.1,1.14,4.75,1.37,.73,.1,.74,.09,.82-.75-1.28-.35-2.64-.59-3.62-1.64,.13-.02,.23,0,.34,.03,1.05,.21,2.1,.44,3.15,.63,.15,.03,.44-.1,.48-.22,.4-1.39,.76-2.79,1.14-4.22Zm10.28-2.73c3.82,10.41,7.65,20.84,11.49,31.26,.01,.04,.11,.04,.28,.1-.05-.23-.07-.39-.12-.53-.9-2.58-1.79-5.16-2.7-7.74-2.67-7.62-5.35-15.24-8.02-22.86-.21-.59-.31-.62-.93-.24Zm-16.19,31.29c.09,.03,.17,.05,.26,.08,3.67-10.02,7.34-20.05,11.03-30.13-.57,.04-.94,.17-1.08,.74-.15,.59-.39,1.17-.59,1.75-3.16,9.02-6.33,18.04-9.49,27.07-.06,.16-.08,.34-.12,.5Z"/><g><path class="cls-2" d="M6.71,54.9l.39,6.91,2.01-.52,.19,3.58-8.53,2.19-.19-3.58,2.01-.52-.39-6.91-2.01,.52-.19-3.58,8.53-2.19,.19,3.58-2.01,.52Z"/><path class="cls-2" d="M31.47,48.94c.12,.46,.2,.95,.23,1.51l.47,8.54-4.51,1.16-.47-8.4c-.02-.22-.05-.42-.1-.61-.25-.96-.97-1.3-1.94-1.05-1.19,.31-1.97,1.28-1.88,2.83l.45,8.24-4.51,1.16-.47-8.4c-.02-.24-.04-.46-.09-.65-.24-.94-.9-1.28-1.8-1.05-1.11,.29-1.82,1.24-1.73,2.79l.45,8.24-4.51,1.16-.77-14.07,4.36-1.12,.08,1.67c.66-1.47,1.81-2.48,3.58-2.94,1.7-.44,2.99-.12,3.85,.95,.85-1.52,2.21-2.5,3.97-2.96,2.54-.65,4.65,.31,5.33,2.99Z"/><path class="cls-2" d="M46.66,46.11c.13,.5,.21,1.05,.24,1.65l.4,7.34-4.51,1.16-.16-2.83-4.24,1.09,.16,2.83-4.43,1.14-.43-7.94c-.23-4.22,1.88-7.03,5.84-8.04,3.57-.92,6.32,.39,7.14,3.6Zm-4.22,3.74l-.08-1.24c-.02-.38-.06-.7-.13-.99-.31-1.22-1.13-1.62-2.24-1.34-1.3,.33-1.99,1.31-1.88,3.22l.09,1.45,4.24-1.09Z"/><path class="cls-2" d="M58.99,47.93l3.24,3.32-4.68,1.21-2.76-2.88-1.11,.29,.2,3.54-4.51,1.16-.77-14.07,6-1.54c3.54-.91,5.98,.19,6.69,2.97,.61,2.39-.25,4.57-2.31,6.02Zm-4.18-5.32l-1.51,.39,.18,3.3,1.85-.48c1.24-.32,1.8-1.16,1.51-2.28-.25-.96-1-1.19-2.03-.92Z"/><path class="cls-2" d="M76.04,38.55c.13,.5,.21,1.05,.24,1.65l.4,7.34-4.51,1.16-.16-2.83-4.24,1.09,.16,2.83-4.43,1.14-.43-7.94c-.23-4.22,1.88-7.03,5.84-8.04,3.57-.92,6.32,.39,7.14,3.6Zm-4.22,3.74l-.08-1.24c-.02-.38-.06-.7-.13-.99-.31-1.22-1.13-1.62-2.24-1.34-1.3,.33-1.99,1.31-1.88,3.22l.09,1.45,4.24-1.09Z"/></g><g><path class="cls-2" d="M51.6,60.09l.19,5.85-1.03,.24-.08-2.48-2.89,.67,.08,2.48-1.04,.24-.18-5.85,1.04-.24,.08,2.4,2.89-.67-.08-2.4,1.03-.24Z"/><path class="cls-2" d="M58.01,60.57c.05,.21,.08,.42,.09,.66l.1,3.21-1.03,.24-.06-1.5-2.9,.68,.05,1.5-1.02,.24-.11-3.35c-.06-1.74,.73-2.77,2.26-3.13,1.35-.31,2.33,.21,2.62,1.45Zm-.93,1.7l-.03-.86c0-.19-.03-.36-.06-.52-.18-.75-.7-1.02-1.49-.84-.93,.22-1.38,.81-1.35,1.97l.03,.92,2.9-.68Z"/><path class="cls-2" d="M61.14,58.76l.12,4.06,1.03-.24,.04,.89-3.1,.72-.04-.89,1.04-.24-.12-4.06-1.02,.24-.04-.89,3.1-.72,.03,.89-1.04,.24Z"/><path class="cls-2" d="M66.76,60.58l1.41,1.54-1.1,.26-1.3-1.42h0s-1.38,.32-1.38,.32l.06,1.71-1.05,.24-.18-5.85,2.17-.51c1.35-.31,2.27,.13,2.52,1.19,.25,1.09-.18,1.98-1.14,2.51Zm.12-2.17c-.14-.61-.64-.8-1.4-.62l-1.19,.28,.07,2.32,1.24-.29c1.01-.23,1.48-.83,1.28-1.69Z"/><path class="cls-2" d="M47.91,73.01l.2-.72c.51,.29,1.27,.38,1.96,.22,.9-.21,1.43-.69,1.29-1.3-.27-1.17-3,.1-3.41-1.69-.25-1.07,.55-1.96,1.92-2.27,.69-.16,1.38-.15,1.91,.05l-.17,.73c-.48-.2-1.05-.23-1.62-.09-.92,.21-1.41,.74-1.27,1.33,.27,1.17,3.01-.05,3.4,1.65,.25,1.09-.57,1.97-1.96,2.29-.85,.2-1.75,.1-2.25-.19Z"/><path class="cls-2" d="M56.89,66.95c-.55-.19-1.14-.25-1.79-.15l.16,5.15-.79,.18-.16-5.17c-.66,.2-1.25,.54-1.69,.96l-.37-.58c.58-.56,1.44-.99,2.31-1.2,.93-.22,1.8-.19,2.54,.08l-.21,.71Z"/><path class="cls-2" d="M62.57,64.36l.19,5.85-.77,.18-.02-.75c-.33,.61-.88,1.03-1.65,1.21-1.13,.26-2-.21-2.27-1.36-.05-.22-.08-.44-.09-.7l-.11-3.32,.8-.19,.1,3.36c0,.21,.03,.4,.07,.56,.18,.79,.72,1.09,1.55,.89,.93-.22,1.55-.91,1.51-2.13l-.11-3.41,.79-.18Z"/><path class="cls-2" d="M64.24,63.97l2.19-.51c1.69-.39,2.88,.28,3.21,1.67,.46,1.97-.62,3.62-2.71,4.11l-2.5,.58-.19-5.85Zm2.55,4.56c1.64-.38,2.4-1.69,2.05-3.17-.23-1.01-1.03-1.49-2.33-1.19l-1.45,.34,.14,4.39,1.59-.37Z"/><path class="cls-2" d="M72.2,62.82l.14,4.44,1.08-.25,.03,.7-2.97,.69-.03-.7,1.09-.25-.14-4.44-1.09,.25-.03-.7,2.97-.69,.03,.7-1.09,.25Z"/><path class="cls-2" d="M74.11,65.14c-.43-1.86,.55-3.67,2.61-4.15,1.67-.39,2.86,.34,3.18,1.74,.43,1.86-.56,3.67-2.62,4.15-1.67,.39-2.85-.35-3.17-1.74Zm5-2.17c-.23-1.01-1.05-1.54-2.29-1.25-1.55,.36-2.25,1.79-1.92,3.19,.23,1.01,1.06,1.54,2.29,1.25,1.55-.36,2.24-1.79,1.92-3.19Z"/></g><path class="cls-3" d="M54.11,20.16c.49-.41,1.08-.59,1.77-.34,.47,.18,1,.25,1.5,.3,5.82,.53,10.49-4.38,9.7-10.17-.76-5.56-6.6-9.06-11.86-7.1-5.47,2.03-7.57,8.48-4.37,13.37,.21,.32,.41,.68,.52,1.05,.29,1-.08,1.88-.6,2.71-.59,.94-1.16,1.89-1.77,2.82-1.6,2.48-3.13,5.01-4.85,7.41-1.38,1.93-3.15,3.52-5.44,4.36-.44,.16-.66,.4-.8,.83-.31,.93-.66,1.85-1.03,2.87-.1-.18-.16-.26-.19-.35-.28-.77-.6-1.53-.83-2.31-.17-.57-.45-.95-1.06-1.1-.36-.09-.69-.29-1.02-.47-2.15-1.19-3.79-2.93-5.11-4.94-2.03-3.1-3.97-6.26-5.92-9.41-.71-1.16-.7-2.31,.09-3.5,2.88-4.36,1.48-9.99-2.84-12.59h0s-.06-.03-.09-.05c-.35-.2-.71-.39-1.1-.56-.33-.14-.68-.23-1.03-.34h0c-.21-.05-.42-.1-.63-.14-.05-.02-.1-.04-.15-.05-.03,0-.06,0-.1,0-.84-.15-1.59-.16-2.19-.13-.3,0-.62,.04-.96,.1-.12,.02-.23,.04-.31,.06,0,0,0,0-.01,0-.14,.03-.21,.05-.21,.05h0c-.66,.17-1.34,.42-2.03,.77-.55,.28-1.06,.27-1.54-.09-.38-.28-.72-.62-1.11-.91-.97-.72-1.93-1.46-2.94-2.12-.58-.38-1.43-.14-1.83,.42-.37,.52-.25,1.14,.35,1.67,.23,.2,.5,.36,.76,.51,.66,.35,1.35,.66,2.01,1.03,.92,.52,1.18,1.12,.91,2.15-.16,.62-.38,1.24-.61,1.84-1.3,3.44-.84,6.64,1.6,9.37,2.48,2.77,5.64,3.56,9.24,2.61,.25-.06,.54-.07,.78,0,1.21,.38,1.92,1.33,2.53,2.35,3.21,5.28,5.95,10.8,8.31,16.5,.25,.59,.48,1.19,.74,1.83-.27,.08-.46,.14-.65,.19-3.93,1.02-7.87,2.03-11.8,3.05-1.72,.44-3.44,.9-5.16,1.32-.51,.13-.48,.48-.41,.83,.08,.39,.38,.16,.58,.11,1.74-.42,3.48-.85,5.23-1.27,5.14-1.24,10.29-2.48,15.43-3.73,4.93-1.19,9.86-2.39,14.78-3.59,2.97-.73,5.94-1.45,8.9-2.22,1.29-.34,2.51-.89,3.54-1.78,1.25-1.09,1.54-2.45,.67-3.85-.46-.74-1.07-1.43-1.74-1.99-1.82-1.56-3.98-2.5-6.26-3.17-.7-.2-1.41-.35-2.19-.55,.42-.71,.76-1.4,1.22-2.01,.46-.61,.99-1.18,1.57-1.66Zm-42.02-1.57c-2.62-1.2-4.12-3.3-4.6-6.13,.77,2.54,2.3,4.48,4.7,5.64,2.41,1.16,4.86,1.14,7.31,.07-2.4,1.39-4.89,1.58-7.41,.42Zm3.33-1.38c-3.25,.01-5.94-2.67-5.95-5.93,0-3.35,2.62-6,5.95-6.01,3.29-.01,5.95,2.63,5.98,5.95,.03,3.29-2.66,5.98-5.99,6Zm16.51,22.9c-.28,.04-.64,.39-.83-.1-.61-1.62-1.2-3.26-1.84-5,.83,.18,1.46,.33,1.69,1.21,.3,1.15,.76,2.26,1.16,3.39,.08,.23,.16,.45-.18,.5Zm11.78-3.26c-.23,.33-.79,.42-1.2,.61-.05-.05-.09-.09-.14-.14,.23-.61,.36-1.28,.71-1.79,.22-.31,.79-.37,1.2-.55,.04,.04,.07,.09,.11,.13-.21,.59-.33,1.24-.68,1.74Zm14.26-8.52c.44,.31,.85,.69,1.21,1.1,1.04,1.2,.9,2.41-.44,3.24-.8,.5-1.69,.92-2.6,1.16-3.66,1-7.33,1.91-11,2.86-.06,.02-.13,0-.21,.01,0-.09-.02-.16,0-.22,.53-1.18,1.05-2.37,1.61-3.54,.07-.14,.35-.27,.53-.26,1.54,.14,3.09,.32,4.63,.49,.09,.01,.19,.02,.28,.03-1.4-1.02-3-1.46-4.65-1.79,.25-.92,.31-1,1.15-.86,1.83,.31,3.65,.67,5.48,1.03,.3,.06,.58,.21,.9,.25-1.81-1.6-4.08-2.14-6.3-2.78,.13-.89,.34-1.05,1.15-.9,2.02,.38,4.02,.81,5.9,1.66,.58,.26,1.14,.59,1.73,.89-.23-.7-1.72-1.94-3.38-2.68-1.32-.59-2.69-1.06-4.1-1.62,.15-.27,.28-.57,.47-.84,.06-.09,.27-.12,.41-.1,2.61,.44,5.05,1.31,7.23,2.84Zm.15-23.06c3.41-.04,6.07,2.56,6.1,5.97,.03,3.26-2.64,5.96-5.89,5.98-3.36,.02-6.02-2.63-6.03-6-.02-3.21,2.63-5.91,5.82-5.94Z"/></g></g></svg>